<svg id="Layer_1"
        data-name="Layer 1"
        xmlns="http://www.w3.org/2000/svg"
        viewBox="0 0 385.35 243.42"
      >
        <path
          d="M192.81,227.31l44-119-2.4.28-61.6,1.72,3.76-1.2,19.61-27.26-1.03,1.43c-7.11-4.74-2.25-16.94,4.65-35.97l-59,80,.24-.02,72.76-1.98-4.57,1.77-19.43,57.23c8,5,11,18,1,46l2-3Z"
          fill="#fff"
          stroke="#000"
          strokeMiterlimit="10"
          strokeWidth="3.58"
        />
        <polygon
          points="109.41 83.18 30.81 149.31 11.81 156.31 83.97 83.31 9.42 6.62 42.42 23.62 110.81 82.31 109.41 83.18"
          fill="#fff"
          stroke="#000"
          strokeMiterlimit="10"
          strokeWidth="3.58"
        />
        <polygon
          points="83.49 153.32 8.93 230.01 41.93 213.01 110.32 154.31 108.93 153.45 30.81 87.31 11.32 80.31 83.49 153.32"
          fill="#fff"
          stroke="#000"
          strokeMiterlimit="10"
          strokeWidth="3.58"
        />
        <polygon
          points="113.81 104.31 126.81 118.31 115.81 131.31 115.81 148.31 142.81 118.61 114.81 88.31 113.81 104.31"
          fill="#fff"
          stroke="#000"
          strokeMiterlimit="10"
          strokeWidth="3.58"
        />
        <polygon
          points="259.81 117.31 375.25 8.65 333.59 29.45 236.81 117.31 334.05 205.28 373.81 224.31 259.81 117.31"
          fill="#fff"
          stroke="#000"
          strokeMiterlimit="10"
          strokeWidth="3.58"
        />
        <polygon
          points="101.26 119.9 90.12 127.11 97.39 116.74 97.39 116.74 108.36 110.25 101.26 119.9"
          fill="#fff"
          stroke="#000"
          strokeMiterlimit="10"
          strokeWidth="1.37"
        />
      </svg>